# xmcd
#
# Track frame offsets:
#	150
#	21842
#	34347
#	52832
#	71127
#	82205
#	96297
#	109355
#	128004
#	148477
#
# Disc length: 2208
#
# Revision: 2
# Processed by: cddbd v1.5.1PL0 Copyright (c) Steve Scherf et al.
# Submitted via: ExactAudioCopy v0.90b4
# Normalized: r0:DSETVAR1,TDELIM( - );r1:TSWAP
#
DISCID=96089e0a
DTITLE=Various Artist - Ultimate Christmas Hits Vol 2
DYEAR=2003
DGENRE=Country
TTITLE0=Selah - O Come, O Come Emmanuel
TTITLE1=Debby Boone - Hark! The Herald Angels Sing
TTITLE2=Lee Greenwood - This Is Christmas
TTITLE3=Michael English - Silent Night
TTITLE4=The Judds - Away In A Manger
TTITLE5=Plumb - Merry Christmas Darling
TTITLE6=Kenny Rogers - Sweet Little Jesus Boy
TTITLE7=Jonathan Pierce - O Holy Night
TTITLE8=Natalie Grant - Joy To The World
TTITLE9=Fernando Ortega - Traveler
EXTD=
EXTT0=
EXTT1=
EXTT2=
EXTT3=
EXTT4=
EXTT5=
EXTT6=
EXTT7=
EXTT8=
EXTT9=
PLAYORDER=
